<svg width="275" height="108" viewBox="0 0 275 108" fill="none" xmlns="http://www.w3.org/2000/svg">
<path d="M0.325684 57.2826L47.7852 2.21303L60.2381 26.2887L45.5713 44.2762L17.2063 51.1945L47.7852 15.6345L50.9676 18.9553L27.1686 46.2133L36.5775 44.2762L54.8418 21.3075L47.7852 7.74766L6.41378 56.0373L8.90436 58.2512L47.7852 47.3203L63.6972 61.1569L60.2381 101.145L63.6972 97.2703L68.1249 63.3707L85.1439 46.2133L99.3956 51.8863V48.4272L63.6972 15.6345L65.6343 21.3075L92.0622 45.1064L84.3137 42.6158L63.6972 22.6912L50.9676 0.275909L104.377 50.3643L71.4457 92.981L72.4143 84.8174L97.1817 54.2386L93.861 51.8863L74.9048 75.6853V70.5657L90.6786 51.8863L88.188 50.3643L71.4457 69.5972L67.1564 99.0691L59.1311 107.371L11.6717 66.8298L19.1434 65.8613L55.8104 96.5785L56.6406 83.0187L30.4894 61.1569L36.5775 59.9116L59.1311 78.3142V67.7984L40.5901 53.1316L6.41378 62.5405L0.325684 57.2826Z" fill="url(#paint0_linear_13_28)"/>
<path d="M68.3877 39.9873L50.8413 44.8304L66.409 59.4344L68.3877 39.9873Z" fill="url(#paint1_linear_13_28)"/>
<path d="M50.3911 45.1936L64.6984 29.3234L68.3729 40.0442L50.3911 45.1936Z" fill="url(#paint2_linear_13_28)"/>
<path d="M79.5932 43.8764L64.1025 29.2419L68.3163 40.0774L79.5932 43.8764Z" fill="url(#paint3_linear_13_28)"/>
<path d="M68.168 40.0339L66.2354 59.3353L79.5316 44.1223L68.168 40.0339Z" fill="url(#paint4_linear_13_28)"/>
<path d="M50.7085 44.9883L64.3767 29.2419L79.723 44.1016L66.1763 59.5201L50.7085 44.9883Z" stroke="#009BC0" stroke-width="1.19523" stroke-linejoin="round"/>
<path d="M64.4659 30.0715L68.1861 40.1869M68.1861 40.1869L51.4297 44.9525M68.1861 40.1869L66.2184 59.3107M68.1861 40.1869L79.4698 44.1223" stroke="#0AA2C2" stroke-width="0.796818"/>
<path fill-rule="evenodd" clip-rule="evenodd" d="M130.972 27.2751V51.7871H146.897C148.878 51.7871 151.656 50.4872 151.656 46.0305C151.656 42.0214 150.03 40.8241 149.118 40.1527C148.762 39.8912 148.515 39.7095 148.515 39.4725C148.515 39.1204 148.835 38.9197 149.271 38.6464C150.201 38.0637 151.656 37.1511 151.656 33.738C151.656 28.7242 150.924 27.2751 147.995 27.2751H130.972ZM138.965 30.8671C138.373 30.8671 137.893 31.3542 137.893 31.9549V37.1505C137.893 37.7512 138.373 38.2383 138.965 38.2383H143.067C143.659 38.2383 144.139 37.7512 144.139 37.1505V31.9549C144.139 31.3542 143.659 30.8671 143.067 30.8671H138.965ZM138.965 41.1032C138.373 41.1032 137.893 41.5902 137.893 42.191V47.3865C137.893 47.9873 138.373 48.4743 138.965 48.4743H143.067C143.659 48.4743 144.139 47.9873 144.139 47.3865V42.191C144.139 41.5902 143.659 41.1032 143.067 41.1032H138.965Z" fill="#007B99"/>
<path d="M161.925 44.2449L154.005 27.2751H161.925L166.576 37.7084L169.718 27.2751H178.015L167.707 51.7871H159.159L161.925 44.2449Z" fill="#007B99"/>
<path d="M184.899 27.2752C181.259 27.2753 176.967 43.6164 176.051 51.7871H183.464C185.058 45.9281 187.658 33.6443 188.367 32.1775C188.673 31.5424 190.261 31.3723 190.878 32.1775V51.7871H198.65V27.2752C196.099 27.2752 189.777 27.275 184.899 27.2752Z" fill="#007B99"/>
<path d="M202.969 51.9674V27.0948H211.369V37.3013C211.369 38.2896 213.758 37.9601 213.758 37.3013L216.805 27.0948L225.246 27.0948C223.297 29.9499 221.042 36.9899 221.108 39.0324C221.174 41.0749 223.819 48.2338 225.246 51.9674H216.805C215.899 48.8652 214.021 42.7861 213.758 41.7978C213.542 40.9866 211.369 41.018 211.369 41.7978V51.9674H202.969Z" fill="#007B99"/>
<path fill-rule="evenodd" clip-rule="evenodd" d="M227.595 51.7871L234.582 27.2751H243.517L250.504 51.7871H242.829L241.684 48.5799H236.071L234.582 51.7871H227.595ZM238.935 37.0112L236.873 45.0291H241.036L238.935 37.0112Z" fill="#007B99"/>
<path d="M254.299 51.7871V27.2751H262.435V38.1922H266.967V27.2751H275V51.7871H266.967V41.8999H261.92V51.7871H254.299Z" fill="#007B99"/>
<rect x="165.855" y="70.6593" width="2.89677" height="2.89677" transform="rotate(-45 165.855 70.6593)" fill="#007B99"/>
<rect x="234.574" y="70.6593" width="2.89677" height="2.89677" transform="rotate(-45 234.574 70.6593)" fill="#007B99"/>
<path d="M188.114 67.5157V69.0469H184.037V76.6317H182.286V67.5157H188.114ZM189.154 80.0502V67.5157H190.887V68.9935H191.035C191.138 68.8035 191.287 68.5839 191.481 68.3347C191.674 68.0854 191.943 67.8678 192.288 67.6818C192.632 67.4919 193.087 67.397 193.653 67.397C194.389 67.397 195.045 67.5829 195.623 67.9548C196.201 68.3268 196.654 68.8629 196.982 69.5632C197.315 70.2635 197.481 71.1063 197.481 72.0915C197.481 73.0767 197.317 73.9214 196.988 74.6257C196.66 75.326 196.209 75.8661 195.635 76.2459C195.061 76.6218 194.406 76.8097 193.671 76.8097C193.117 76.8097 192.664 76.7168 192.311 76.5308C191.963 76.3448 191.69 76.1272 191.492 75.878C191.295 75.6287 191.142 75.4071 191.035 75.2133H190.929V80.0502H189.154ZM190.893 72.0737C190.893 72.7147 190.986 73.2765 191.172 73.7592C191.358 74.2419 191.627 74.6198 191.979 74.8928C192.331 75.1618 192.763 75.2963 193.273 75.2963C193.803 75.2963 194.246 75.1559 194.602 74.875C194.958 74.5901 195.227 74.2043 195.409 73.7177C195.595 73.231 195.688 72.683 195.688 72.0737C195.688 71.4723 195.597 70.9322 195.415 70.4534C195.237 69.9747 194.968 69.5968 194.608 69.3199C194.252 69.0429 193.807 68.9044 193.273 68.9044C192.759 68.9044 192.323 69.037 191.967 69.3021C191.615 69.5672 191.348 69.9371 191.166 70.4119C190.984 70.8867 190.893 71.4406 190.893 72.0737ZM199.445 80.0502C199.18 80.0502 198.938 80.0285 198.721 79.9849C198.503 79.9454 198.341 79.9018 198.234 79.8544L198.662 78.4003C198.986 78.4874 199.275 78.5249 199.528 78.5131C199.781 78.5012 200.005 78.4062 200.199 78.2282C200.396 78.0501 200.571 77.7593 200.721 77.3558L200.941 76.7504L197.605 67.5157H199.504L201.813 74.5901H201.908L204.217 67.5157H206.122L202.365 77.8484C202.191 78.3232 201.969 78.7247 201.7 79.0531C201.431 79.3855 201.111 79.6348 200.739 79.8009C200.367 79.9671 199.936 80.0502 199.445 80.0502ZM206.954 76.6317V67.5157H214.39V76.6317H212.651V69.0469H208.681V76.6317H206.954ZM215.927 76.6317V67.5157H223.364V76.6317H221.625V69.0469H217.654V76.6317H215.927Z" fill="#007B99"/>
<defs>
<linearGradient id="paint0_linear_13_28" x1="52.3512" y1="0.275909" x2="52.3512" y2="107.371" gradientUnits="userSpaceOnUse">
<stop stop-color="#00B6DE"/>
<stop offset="0.51" stop-color="#0059AE"/>
<stop offset="1" stop-color="#59A5CA"/>
</linearGradient>
<linearGradient id="paint1_linear_13_28" x1="66.3694" y1="41.7267" x2="61.9055" y2="55.1157" gradientUnits="userSpaceOnUse">
<stop stop-color="#0059A6"/>
<stop offset="1" stop-color="#008FD1"/>
</linearGradient>
<linearGradient id="paint2_linear_13_28" x1="57.1893" y1="35.7932" x2="66.2673" y2="42.1203" gradientUnits="userSpaceOnUse">
<stop stop-color="#00D0FD"/>
<stop offset="1" stop-color="#00A7DB"/>
</linearGradient>
<linearGradient id="paint3_linear_13_28" x1="69.8436" y1="34.6928" x2="69.8436" y2="40.1946" gradientUnits="userSpaceOnUse">
<stop stop-color="#83C0C6"/>
<stop offset="1" stop-color="#AAE5FD"/>
</linearGradient>
<linearGradient id="paint4_linear_13_28" x1="68.6645" y1="41.4971" x2="70.4426" y2="53.5487" gradientUnits="userSpaceOnUse">
<stop stop-color="#0091BF"/>
<stop offset="1" stop-color="#8ADAF9"/>
</linearGradient>
</defs>
</svg>
