<svg width="105" height="108" viewBox="0 0 105 108" fill="none" xmlns="http://www.w3.org/2000/svg">
<path d="M0.325684 57.2826L47.7852 2.21303L60.2381 26.2887L45.5713 44.2762L17.2063 51.1945L47.7852 15.6345L50.9676 18.9553L27.1686 46.2133L36.5775 44.2762L54.8418 21.3075L47.7852 7.74766L6.41378 56.0373L8.90436 58.2512L47.7852 47.3203L63.6972 61.1569L60.2381 101.145L63.6972 97.2703L68.1249 63.3707L85.1439 46.2133L99.3956 51.8863V48.4272L63.6972 15.6345L65.6343 21.3075L92.0622 45.1064L84.3137 42.6158L63.6972 22.6912L50.9676 0.275909L104.377 50.3643L71.4457 92.981L72.4143 84.8174L97.1817 54.2386L93.861 51.8863L74.9048 75.6853V70.5657L90.6786 51.8863L88.188 50.3643L71.4457 69.5972L67.1564 99.0691L59.1311 107.371L11.6717 66.8298L19.1434 65.8613L55.8104 96.5785L56.6406 83.0187L30.4894 61.1569L36.5775 59.9116L59.1311 78.3142V67.7984L40.5901 53.1316L6.41378 62.5405L0.325684 57.2826Z" fill="url(#paint0_linear_8_32)"/>
<path d="M68.3877 39.9873L50.8413 44.8304L66.409 59.4344L68.3877 39.9873Z" fill="url(#paint1_linear_8_32)"/>
<path d="M50.3911 45.1936L64.6984 29.3234L68.3729 40.0442L50.3911 45.1936Z" fill="url(#paint2_linear_8_32)"/>
<path d="M79.5932 43.8764L64.1025 29.2419L68.3163 40.0774L79.5932 43.8764Z" fill="url(#paint3_linear_8_32)"/>
<path d="M68.168 40.0339L66.2354 59.3353L79.5316 44.1223L68.168 40.0339Z" fill="url(#paint4_linear_8_32)"/>
<path d="M50.7085 44.9883L64.3767 29.2419L79.723 44.1016L66.1763 59.5201L50.7085 44.9883Z" stroke="#009BC0" stroke-width="1.19523" stroke-linejoin="round"/>
<path d="M64.4659 30.0715L68.1861 40.1869M68.1861 40.1869L51.4297 44.9525M68.1861 40.1869L66.2184 59.3107M68.1861 40.1869L79.4698 44.1223" stroke="#0AA2C2" stroke-width="0.796818"/>
<defs>
<linearGradient id="paint0_linear_8_32" x1="52.3512" y1="0.275909" x2="52.3512" y2="107.371" gradientUnits="userSpaceOnUse">
<stop stop-color="#00B6DE"/>
<stop offset="0.51" stop-color="#0059AE"/>
<stop offset="1" stop-color="#59A5CA"/>
</linearGradient>
<linearGradient id="paint1_linear_8_32" x1="66.3694" y1="41.7267" x2="61.9055" y2="55.1157" gradientUnits="userSpaceOnUse">
<stop stop-color="#0059A6"/>
<stop offset="1" stop-color="#008FD1"/>
</linearGradient>
<linearGradient id="paint2_linear_8_32" x1="57.1893" y1="35.7932" x2="66.2673" y2="42.1203" gradientUnits="userSpaceOnUse">
<stop stop-color="#00D0FD"/>
<stop offset="1" stop-color="#00A7DB"/>
</linearGradient>
<linearGradient id="paint3_linear_8_32" x1="69.8436" y1="34.6928" x2="69.8436" y2="40.1946" gradientUnits="userSpaceOnUse">
<stop stop-color="#83C0C6"/>
<stop offset="1" stop-color="#AAE5FD"/>
</linearGradient>
<linearGradient id="paint4_linear_8_32" x1="68.6645" y1="41.4971" x2="70.4426" y2="53.5487" gradientUnits="userSpaceOnUse">
<stop stop-color="#0091BF"/>
<stop offset="1" stop-color="#8ADAF9"/>
</linearGradient>
</defs>
</svg>
